<?xml version="1.0" encoding="UTF-8"?>
<svg xmlns="http://www.w3.org/2000/svg" xmlns:xlink="http://www.w3.org/1999/xlink" width="50pt" height="50pt" viewBox="0 0 50 50" version="1.1">
<g id="surface1">
<path style=" stroke:none;fill-rule:nonzero;fill:rgb(0%,54.509804%,81.176471%);fill-opacity:1;" d="M 25 0 C 11.214844 0 0 11.214844 0 25 C 0 38.785156 11.214844 50 25 50 C 38.785156 50 50 38.785156 50 25 C 50 11.214844 38.785156 0 25 0 Z M 34.804688 22.304688 C 34.398438 22.710938 33.867188 22.917969 33.332031 22.917969 C 32.800781 22.917969 32.265625 22.710938 31.859375 22.304688 L 27.082031 17.527344 L 27.082031 37.5 C 27.082031 38.648438 26.152344 39.582031 25 39.582031 C 23.847656 39.582031 22.917969 38.648438 22.917969 37.5 L 22.917969 17.527344 L 18.140625 22.304688 C 17.324219 23.121094 16.007812 23.121094 15.195312 22.304688 C 14.378906 21.492188 14.378906 20.175781 15.195312 19.359375 L 23.523438 11.027344 C 23.71875 10.835938 23.949219 10.683594 24.203125 10.578125 C 24.710938 10.367188 25.289062 10.367188 25.796875 10.578125 C 26.050781 10.683594 26.285156 10.835938 26.476562 11.027344 L 34.804688 19.359375 C 35.621094 20.175781 35.621094 21.492188 34.804688 22.304688 Z M 34.804688 22.304688 "/>
</g>
</svg>
