<svg width="10" height="21" viewBox="0 0 10 21" fill="none" xmlns="http://www.w3.org/2000/svg">
<path fill-rule="evenodd" clip-rule="evenodd" d="M2.16987 15.59C2.16987 13.9769 2.16056 12.3638 2.17918 10.7507C2.17918 10.4773 2.1047 10.3952 1.82541 10.4044C1.31337 10.4226 0.801335 10.4044 0.279988 10.4135C0.075173 10.4226 -0.00861499 10.3588 0.000694781 10.1492C0.0100046 9.14667 0.0100046 8.13506 0.000694781 7.13256C0.000694781 6.94118 0.0565537 6.87738 0.261369 6.87738C0.782716 6.8865 1.31337 6.85916 1.83472 6.8865C2.14194 6.90472 2.1978 6.79536 2.1978 6.52195C2.17918 5.75641 2.17918 4.99086 2.1978 4.22532C2.21642 3.28662 2.47709 2.41171 3.04499 1.65528C3.76184 0.689235 4.78592 0.251781 5.96826 0.197099C7.17853 0.142417 8.39811 0.169758 9.61769 0.160645C9.78527 0.160645 9.84113 0.215326 9.84113 0.379372C9.83182 1.4001 9.83182 2.41171 9.84113 3.43243C9.84113 3.61471 9.78527 3.66939 9.59907 3.66939C9.01256 3.66027 8.42604 3.66939 7.84883 3.66939C7.06681 3.66939 6.60133 4.06127 6.55478 4.8177C6.51754 5.4192 6.54547 6.02982 6.52685 6.64043C6.51754 6.85916 6.65718 6.84093 6.79683 6.84093C7.68126 6.84093 8.575 6.85004 9.45943 6.83181C9.7201 6.83181 9.80389 6.8865 9.77596 7.15079C9.66424 8.1624 9.57114 9.17402 9.47804 10.1947C9.45942 10.4226 9.34771 10.4681 9.14289 10.4681C8.44466 10.459 7.73712 10.459 7.03888 10.4681C6.53616 10.4681 6.5827 10.3952 6.5827 10.8965C6.5827 14.0589 6.5734 17.2122 6.59201 20.3747C6.59201 20.7119 6.50823 20.7939 6.17308 20.7848C4.97211 20.7665 3.76184 20.7574 2.56088 20.7848C2.22573 20.7939 2.16987 20.6754 2.16987 20.3838C2.17918 18.7707 2.16987 17.1758 2.16987 15.59Z" fill="#008BCF"/>
</svg>
