<svg width="175" height="34" viewBox="0 0 175 34" fill="none" xmlns="http://www.w3.org/2000/svg">
<path d="M67.8906 2.49097L77.2326 7.79013L67.8906 13.0497V2.49097Z" fill="#008BCF"/>
<path d="M22.8313 0.0393066C23.1132 0.0393066 23.3548 0.118399 23.5562 0.316128C23.7575 0.513858 23.8783 0.751134 23.8783 1.0675V23.0551C23.8783 23.3319 23.7575 23.5692 23.5562 23.7669C23.3548 23.9646 23.1132 24.0832 22.8313 24.0832H22.7911C22.5092 24.0832 22.2676 23.9646 22.0663 23.7669C21.8649 23.5692 21.7441 23.3319 21.7441 23.0551V1.0675C21.7441 0.79068 21.8649 0.553404 22.0663 0.316128C22.2676 0.118399 22.5092 0.0393066 22.7911 0.0393066H22.8313Z" fill="#008BCF"/>
<path d="M14.939 9.37201C16.6302 11.0329 17.5161 13.0893 17.5161 15.4621V23.0154C17.5161 23.2922 17.3953 23.5295 17.194 23.7272C16.9926 23.9249 16.751 24.0436 16.4692 24.0436H16.4289C16.147 24.0436 15.9054 23.9249 15.7041 23.7272C15.5028 23.5295 15.382 23.2922 15.382 23.0154V21.1172C13.1673 23.0549 10.9526 24.004 8.73792 24.004C6.32191 24.004 4.26829 23.1735 2.53682 21.4731C0.845605 19.8517 0 17.8348 0 15.4621C0 13.0893 0.845605 11.0725 2.57708 9.37201C4.26829 7.71108 6.36217 6.84106 8.77819 6.84106C11.1539 6.88061 13.2075 7.71108 14.939 9.37201ZM4.06696 10.8748C2.77842 12.1402 2.13415 13.6825 2.13415 15.4621C2.13415 17.2417 2.77842 18.7839 4.06696 20.089C5.3555 21.3544 6.92591 21.9872 8.77819 21.9872C10.5902 21.9872 12.1606 21.3544 13.4492 20.089C14.7377 18.8235 15.382 17.2812 15.382 15.4621C15.382 13.6825 14.7377 12.1402 13.4492 10.8748C12.1606 9.60928 10.6305 8.97655 8.77819 8.97655C6.92591 8.937 5.3555 9.56974 4.06696 10.8748Z" fill="#008BCF"/>
<path d="M88.8283 0.0393066C89.1102 0.0393066 89.3518 0.118399 89.5934 0.316128C89.7947 0.513858 89.8752 0.751134 89.8752 1.0675V1.10705C89.8752 1.38387 89.7947 1.62115 89.5934 1.85842C89.392 2.05615 89.1504 2.13524 88.8283 2.13524H87.8619C86.6539 2.13524 85.6472 2.57025 84.8016 3.40071C83.956 4.23118 83.5533 5.21983 83.513 6.40621V6.9203H88.8283C89.1102 6.9203 89.3518 7.03894 89.5934 7.23667C89.7947 7.4344 89.8752 7.67168 89.8752 7.9485V7.98804C89.8752 8.26487 89.7947 8.50214 89.5934 8.73942C89.392 8.93715 89.1504 9.05579 88.8283 9.05579H83.513V23.1341C83.513 23.411 83.3923 23.6482 83.1909 23.846C82.9896 24.0437 82.748 24.1623 82.4661 24.1623H82.4258C82.144 24.1623 81.9024 24.0437 81.701 23.846C81.4997 23.6482 81.3789 23.411 81.3789 23.1341V6.36666C81.4192 4.58709 82.0232 3.12389 83.2714 1.89797C84.56 0.672042 86.0499 0.0393066 87.8619 0.0393066H88.8283Z" fill="#008BCF"/>
<path d="M95.3124 2.68913C94.9098 2.68913 94.5876 2.57049 94.346 2.29367C94.1044 2.05639 93.9434 1.74002 93.9434 1.34456C93.9434 0.988649 94.0642 0.672281 94.346 0.39546C94.5876 0.158184 94.9098 0 95.3124 0C95.6748 0 95.997 0.118638 96.2788 0.39546C96.5607 0.672281 96.6815 0.988649 96.6815 1.34456C96.6815 1.70048 96.5607 2.01684 96.2788 2.29367C95.997 2.57049 95.7151 2.68913 95.3124 2.68913ZM95.3527 6.881C95.6346 6.881 95.8762 6.99964 96.0775 7.19736C96.2788 7.39509 96.3996 7.63237 96.3996 7.94874V23.0948C96.3996 23.3717 96.2788 23.6089 96.0775 23.8067C95.8762 24.0044 95.6346 24.123 95.3527 24.123H95.3124C95.0306 24.123 94.789 24.0044 94.5876 23.8067C94.3863 23.6089 94.2655 23.3717 94.2655 23.0948V7.90919C94.2655 7.63237 94.3863 7.39509 94.5876 7.15782C94.7487 6.96009 95.0306 6.881 95.3527 6.881Z" fill="#008BCF"/>
<path d="M115.565 9.37224C117.256 11.0332 118.142 13.0896 118.142 15.4623V23.0156C118.142 23.2924 118.022 23.5297 117.82 23.7274C117.619 23.9252 117.377 24.0438 117.095 24.0438H117.055C116.773 24.0438 116.532 23.9252 116.33 23.7274C116.129 23.5297 116.008 23.2924 116.008 23.0156V21.1174C113.793 23.0551 111.579 24.0042 109.364 24.0042C106.948 24.0042 104.895 23.1738 103.163 21.4733C101.472 19.8124 100.586 17.756 100.586 15.3832C100.586 13.0105 101.432 10.9936 103.163 9.29315C104.854 7.63222 106.948 6.76221 109.364 6.76221C111.78 6.88084 113.874 7.71131 115.565 9.37224ZM104.693 10.875C103.405 12.1405 102.76 13.6828 102.76 15.4623C102.76 17.2419 103.405 18.7842 104.693 20.0892C105.982 21.3547 107.552 21.9874 109.404 21.9874C111.216 21.9874 112.787 21.3547 114.075 20.0892C115.364 18.8237 116.008 17.2814 116.008 15.4623C116.008 13.6828 115.364 12.1405 114.075 10.875C112.787 9.60952 111.257 8.97678 109.404 8.97678C107.552 8.93724 105.982 9.56997 104.693 10.875Z" fill="#008BCF"/>
<path d="M124.505 23.0156C124.505 23.2924 124.384 23.5297 124.183 23.7274C123.982 23.9252 123.74 24.0438 123.458 24.0438H123.418C123.136 24.0438 122.895 23.9252 122.693 23.7274C122.492 23.5297 122.371 23.2924 122.371 23.0156V13.92C122.371 11.9823 123.056 10.3214 124.465 8.93725C125.874 7.55314 127.566 6.88086 129.539 6.88086C131.512 6.88086 133.203 7.55314 134.612 8.93725C136.022 10.3214 136.706 11.9823 136.706 13.92V23.0156C136.706 23.2924 136.585 23.5297 136.384 23.7274C136.183 23.9252 135.941 24.0438 135.659 24.0438H135.619C135.337 24.0438 135.095 23.9252 134.854 23.7274C134.652 23.5297 134.532 23.2924 134.532 23.0156V13.92C134.532 12.5359 134.048 11.3891 133.042 10.4005C132.035 9.4118 130.867 8.93725 129.458 8.93725C128.049 8.93725 126.881 9.4118 125.874 10.4005C124.908 11.3891 124.384 12.5359 124.384 13.92V23.0156H124.505Z" fill="#008BCF"/>
<path d="M152.369 7.2763C152.853 7.43449 153.094 7.75086 153.094 8.22541V8.34405C153.094 8.69996 152.973 8.97678 152.692 9.17451C152.41 9.37224 152.088 9.45133 151.765 9.33269C151.121 9.09542 150.437 9.01633 149.752 9.01633C147.94 9.01633 146.37 9.64906 145.041 10.9145C143.752 12.18 143.108 13.7223 143.108 15.5414C143.108 17.321 143.752 18.8633 145.041 20.1287C146.329 21.3942 147.9 22.0269 149.752 22.0269C150.437 22.0269 151.121 21.9083 151.765 21.7106C152.088 21.5919 152.41 21.6315 152.692 21.8292C152.973 22.0269 153.094 22.3038 153.094 22.6597C153.094 23.1342 152.853 23.4506 152.369 23.6088C151.524 23.8856 150.638 24.0042 149.712 24.0042C147.296 24.0042 145.242 23.1738 143.511 21.4733C141.819 19.8124 140.934 17.756 140.934 15.3832C140.934 13.0105 141.779 10.9936 143.511 9.29315C145.202 7.63222 147.296 6.76221 149.712 6.76221C150.638 6.88084 151.524 6.99948 152.369 7.2763Z" fill="#008BCF"/>
<path d="M166.1 6.88086C168.516 6.88086 170.57 7.71133 172.302 9.4118C173.993 11.0727 174.879 13.1291 174.879 15.5019C174.879 17.8746 174.033 19.8915 172.302 21.592C170.61 23.2529 168.516 24.1229 166.1 24.1229C163.684 24.1229 161.631 23.2924 159.899 21.592C158.208 19.931 157.322 17.8746 157.322 15.5019C157.322 13.1291 158.168 11.1123 159.899 9.4118C161.631 7.71133 163.684 6.88086 166.1 6.88086ZM166.1 8.9768C164.288 8.9768 162.718 9.60953 161.389 10.875C160.101 12.1405 159.456 13.6828 159.456 15.5019C159.456 17.2814 160.101 18.8237 161.389 20.0892C162.678 21.3547 164.248 21.9874 166.1 21.9874C167.953 21.9874 169.483 21.3547 170.771 20.0892C172.06 18.8237 172.704 17.2814 172.704 15.5019C172.704 13.7223 172.06 12.18 170.771 10.875C169.523 9.60953 167.953 8.9768 166.1 8.9768Z" fill="#008BCF"/>
<path d="M29.1934 0.0393066C29.4753 0.0393066 29.7169 0.118399 29.9182 0.316128C30.1196 0.513858 30.2404 0.751134 30.2404 1.0675V6.88076H33.7839C34.0657 6.88076 34.3073 6.99939 34.5087 7.19712C34.71 7.39485 34.8308 7.63213 34.8308 7.9485V7.98804C34.8308 8.26487 34.71 8.50214 34.5087 8.69987C34.3073 8.8976 34.0657 9.01624 33.7839 9.01624H30.2404V19.8123C30.2404 20.4055 30.4417 20.9196 30.8846 21.315C31.3276 21.75 31.851 21.9478 32.455 21.9478H33.8241C34.106 21.9478 34.3476 22.0664 34.5489 22.2641C34.7503 22.4619 34.8711 22.6991 34.8711 23.0155V23.0551C34.8711 23.3319 34.7503 23.5692 34.5489 23.7669C34.3476 23.9646 34.106 24.0832 33.8241 24.0832H32.455C31.247 24.0832 30.2404 23.6878 29.3948 22.8573C28.5492 22.0269 28.1465 21.0382 28.1465 19.8518V1.0675C28.1465 0.79068 28.2673 0.553404 28.4686 0.316128C28.6297 0.118399 28.8713 0.0393066 29.1532 0.0393066H29.1934Z" fill="#008BCF"/>
<path d="M41.1927 17.0044C41.1927 18.3885 41.6759 19.5353 42.6826 20.524C43.6893 21.4731 44.857 21.9872 46.2664 21.9872C47.6757 21.9872 48.8435 21.5126 49.8501 20.524C50.8165 19.5353 51.34 18.3885 51.34 17.0044V7.90881C51.34 7.63198 51.4608 7.39471 51.6621 7.15743C51.8635 6.9597 52.1051 6.84106 52.4272 6.84106H52.4675C52.7493 6.84106 52.9909 6.9597 53.1923 7.15743C53.3936 7.35516 53.5144 7.59244 53.5144 7.90881V17.0044C53.5144 18.9421 52.8299 20.6031 51.4205 21.9872C50.0112 23.3713 48.32 24.0436 46.3469 24.0436C44.3738 24.0436 42.6826 23.3713 41.2733 21.9872C39.7834 20.6031 39.0586 18.9421 39.0586 17.0044V7.90881C39.0586 7.63198 39.1794 7.39471 39.3807 7.15743C39.5821 6.9597 39.8237 6.84106 40.1055 6.84106H40.1458C40.4277 6.84106 40.6693 6.9597 40.8706 7.15743C41.0719 7.35516 41.1927 7.59244 41.1927 7.90881V17.0044Z" fill="#008BCF"/>
<path d="M83.4737 30.9638C83.4334 30.9242 83.3932 30.9242 83.3529 30.8847C83.3126 30.8451 83.2321 30.8056 83.1516 30.766C83.071 30.7265 82.9905 30.6869 82.8697 30.6869C82.7489 30.6474 82.6684 30.6474 82.5476 30.6474C82.3462 30.6474 82.2254 30.6869 82.1449 30.766C82.0644 30.8451 82.0241 30.9242 82.0241 31.0428C82.0241 31.1219 82.0241 31.1615 82.0644 31.201C82.1046 31.2406 82.1449 31.2801 82.2254 31.3197C82.306 31.3592 82.3865 31.3988 82.467 31.3988C82.5476 31.4383 82.6684 31.4383 82.8294 31.4778C82.9905 31.5174 83.1516 31.5569 83.2724 31.636C83.3932 31.7151 83.514 31.7547 83.6348 31.8338C83.7153 31.9129 83.7958 31.9919 83.8764 32.1106C83.9569 32.2292 83.9569 32.3479 83.9569 32.506C83.9569 32.7038 83.9166 32.862 83.8361 32.9806C83.7556 33.0992 83.675 33.2179 83.5542 33.297C83.4334 33.3761 83.3126 33.4156 83.1516 33.4552C82.9905 33.4947 82.8294 33.4947 82.6684 33.4947C82.4268 33.4947 82.1449 33.4552 81.9033 33.3761C81.6617 33.297 81.4201 33.1783 81.2188 33.0597L81.5006 32.506C81.5409 32.5456 81.5812 32.5851 81.6617 32.6247C81.7422 32.6642 81.8228 32.7038 81.9436 32.7829C82.0644 32.8224 82.1449 32.862 82.306 32.9015C82.4268 32.9411 82.5476 32.9411 82.7086 32.9411C83.071 32.9411 83.2724 32.8224 83.2724 32.5851C83.2724 32.506 83.2321 32.4665 83.1918 32.3874C83.1516 32.3083 83.071 32.3083 83.0308 32.2688C82.9905 32.2292 82.8697 32.1897 82.7489 32.1501C82.6281 32.1106 82.5073 32.071 82.3865 32.0315C82.2254 31.9919 82.0644 31.9524 81.9436 31.8733C81.8228 31.8338 81.702 31.7547 81.6214 31.6756C81.5409 31.5965 81.4604 31.5174 81.4201 31.4383C81.3798 31.3592 81.3396 31.2406 81.3396 31.0824C81.3396 30.9242 81.3798 30.766 81.4201 30.6078C81.4604 30.4497 81.5811 30.3706 81.702 30.2915C81.8228 30.2124 81.9436 30.1333 82.1046 30.0937C82.2657 30.0542 82.4268 30.0146 82.5878 30.0146C82.8294 30.0146 83.071 30.0542 83.2724 30.1333C83.4737 30.2124 83.675 30.2915 83.7958 30.4101L83.4737 30.9638Z" fill="#008BCF"/>
<path d="M88.5068 32.8624V33.4556H86.0908V30.0547H88.4665V30.6479H86.7753V31.4783H88.2249V32.032H86.7753V32.8624H88.5068Z" fill="#008BCF"/>
<path d="M93.5404 33.4556V31.2015L92.6545 32.8624H92.2921L91.4062 31.2015V33.4556H90.7217V30.0547H91.4465L92.4532 31.9924L93.5001 30.0547H94.2249V33.4556H93.5404Z" fill="#008BCF"/>
<path d="M96.6406 33.4556V30.0547H98.0902C98.2513 30.0547 98.4124 30.0942 98.5332 30.1338C98.654 30.2129 98.7748 30.292 98.8956 30.4106C99.0164 30.5292 99.0566 30.6479 99.1372 30.7665C99.1774 30.8852 99.2177 31.0433 99.2177 31.162C99.2177 31.3202 99.1774 31.4388 99.1372 31.597C99.0969 31.7156 99.0164 31.8343 98.9358 31.9529C98.8553 32.0715 98.7345 32.1506 98.6137 32.1902C98.4929 32.2693 98.3318 32.2693 98.1708 32.2693H97.3654V33.4161H96.6406V33.4556ZM97.3252 31.7552H98.0902C98.211 31.7552 98.3318 31.7156 98.4124 31.597C98.4929 31.4783 98.5332 31.3597 98.5332 31.2015C98.5332 31.1224 98.5332 31.0433 98.4929 30.9642C98.4526 30.8852 98.4526 30.8456 98.3721 30.8061C98.3318 30.7665 98.2916 30.727 98.211 30.6874C98.1708 30.6479 98.0902 30.6479 98.05 30.6479H97.2849V31.7552H97.3252Z" fill="#008BCF"/>
<path d="M101.393 33.4556V30.0547H102.077V32.8624H103.849V33.4556H101.393Z" fill="#008BCF"/>
<path d="M105.942 33.4556V30.0547H106.627V33.4556H105.942Z" fill="#008BCF"/>
<path d="M108.842 31.7156C108.842 31.5179 108.882 31.3202 108.963 31.0829C109.043 30.8851 109.164 30.6874 109.285 30.5292C109.446 30.371 109.607 30.2524 109.808 30.1338C110.01 30.0151 110.251 29.9756 110.533 29.9756C110.855 29.9756 111.137 30.0547 111.379 30.1733C111.62 30.292 111.781 30.4897 111.902 30.727L111.379 31.0829C111.338 31.0038 111.258 30.9247 111.218 30.8456C111.177 30.7665 111.097 30.727 111.016 30.6874C110.936 30.6479 110.855 30.6083 110.775 30.6083C110.694 30.6083 110.614 30.5688 110.533 30.5688C110.372 30.5688 110.211 30.6083 110.09 30.6874C109.969 30.7665 109.848 30.8456 109.768 30.9642C109.687 31.0829 109.607 31.2015 109.567 31.3202C109.526 31.4388 109.486 31.597 109.486 31.7156C109.486 31.8738 109.526 31.9924 109.567 32.1506C109.607 32.3088 109.687 32.4274 109.768 32.5065C109.848 32.6252 109.969 32.7043 110.09 32.7438C110.211 32.8229 110.372 32.8229 110.493 32.8229C110.573 32.8229 110.654 32.8229 110.734 32.7834C110.815 32.7834 110.895 32.7438 110.976 32.7043C111.057 32.6647 111.137 32.6252 111.177 32.5461C111.258 32.467 111.298 32.3879 111.338 32.3088L111.902 32.6252C111.862 32.7438 111.781 32.8624 111.661 32.9811C111.54 33.0602 111.459 33.1788 111.298 33.2184C111.177 33.2975 111.016 33.337 110.895 33.3765C110.775 33.4161 110.614 33.4161 110.452 33.4161C110.211 33.4161 109.969 33.3765 109.768 33.2579C109.567 33.1393 109.406 33.0206 109.244 32.8624C109.083 32.7043 108.963 32.5065 108.882 32.3088C108.882 32.1506 108.842 31.9529 108.842 31.7156Z" fill="#008BCF"/>
<path d="M116.492 32.8624V33.4556H114.076V30.0547H116.452V30.6479H114.761V31.4783H116.21V32.032H114.761V32.8624H116.492Z" fill="#008BCF"/>
<path d="M121.567 33.4556V31.2015L120.681 32.8624H120.318L119.433 31.2015V33.4556H118.748V30.0547H119.473L120.48 31.9924L121.526 30.0547H122.251V33.4556H121.567Z" fill="#008BCF"/>
<path d="M127.043 32.8624V33.4556H124.627V30.0547H127.003V30.6479H125.311V31.4783H126.761V32.032H125.311V32.8624H127.043Z" fill="#008BCF"/>
<path d="M129.941 31.2806V33.4556H129.257V30.0547H129.78L131.592 32.2693V30.0547H132.277V33.4556H131.713L129.941 31.2806Z" fill="#008BCF"/>
<path d="M137.31 30.6479H136.223V33.4556H135.538V30.6479H134.451V30.0547H137.35V30.6479H137.31Z" fill="#008BCF"/>
<path d="M141.82 32.8624V33.4556H139.404V30.0547H141.78V30.6479H140.089V31.4783H141.538V32.032H140.089V32.8624H141.82Z" fill="#008BCF"/>
<path d="M146.935 33.4556V30.0547H149.27V30.6479H147.619V31.5179H148.988V32.0715H147.619V33.4952H146.935V33.4556Z" fill="#008BCF"/>
<path d="M152.894 32.902C153.055 32.902 153.176 32.8625 153.297 32.8229C153.417 32.7834 153.498 32.6647 153.578 32.5856C153.659 32.467 153.699 32.3484 153.74 32.2297C153.78 32.1111 153.78 31.9529 153.78 31.8343V30.0942H154.464V31.8343C154.464 32.0715 154.424 32.2693 154.384 32.5066C154.344 32.7043 154.223 32.902 154.102 33.0602C153.981 33.2184 153.82 33.337 153.619 33.4161C153.417 33.4952 153.216 33.5347 152.934 33.5347C152.652 33.5347 152.411 33.4952 152.25 33.3766C152.048 33.2975 151.887 33.1393 151.766 33.0207C151.646 32.8625 151.565 32.7043 151.525 32.467C151.485 32.2693 151.444 32.032 151.444 31.8343V30.0942H152.129V31.8343C152.129 31.9925 152.129 32.1111 152.169 32.2297C152.209 32.3484 152.25 32.467 152.33 32.5856C152.411 32.7043 152.491 32.7834 152.572 32.8229C152.612 32.8625 152.773 32.902 152.894 32.902Z" fill="#008BCF"/>
<path d="M159.418 30.6479H158.33V33.4556H157.646V30.6479H156.559V30.0547H159.458V30.6479H159.418Z" fill="#008BCF"/>
<path d="M163 32.902C163.161 32.902 163.282 32.8625 163.403 32.8229C163.524 32.7834 163.604 32.6647 163.685 32.5856C163.765 32.467 163.806 32.3484 163.846 32.2297C163.886 32.1111 163.886 31.9529 163.886 31.8343V30.0942H164.571V31.8343C164.571 32.0715 164.531 32.2693 164.49 32.5066C164.45 32.7043 164.329 32.902 164.208 33.0602C164.088 33.2184 163.927 33.337 163.725 33.4161C163.524 33.4952 163.323 33.5347 163.041 33.5347C162.759 33.5347 162.517 33.4952 162.356 33.3766C162.155 33.2975 161.994 33.1393 161.873 33.0207C161.752 32.8625 161.672 32.7043 161.631 32.467C161.591 32.2693 161.551 32.032 161.551 31.8343V30.0942H162.235V31.8343C162.235 31.9925 162.235 32.1111 162.276 32.2297C162.316 32.3484 162.356 32.467 162.437 32.5856C162.517 32.7043 162.598 32.7834 162.678 32.8229C162.719 32.8625 162.839 32.902 163 32.902Z" fill="#008BCF"/>
<path d="M166.906 33.4556V30.0547H168.436C168.597 30.0547 168.759 30.0942 168.879 30.1338C169 30.2129 169.121 30.292 169.242 30.4106C169.363 30.5292 169.403 30.6479 169.483 30.7665C169.524 30.8852 169.564 31.0433 169.564 31.162C169.564 31.3992 169.524 31.597 169.403 31.7552C169.282 31.9529 169.121 32.0715 168.96 32.1506L169.765 33.4161H169L168.275 32.2693H167.631V33.4161H166.906V33.4556ZM167.551 31.7552H168.396C168.477 31.7552 168.517 31.7552 168.557 31.7156C168.597 31.6761 168.638 31.6365 168.678 31.597C168.718 31.5574 168.759 31.4783 168.759 31.4388C168.799 31.3597 168.799 31.2806 168.799 31.2411C168.799 31.162 168.799 31.0829 168.759 31.0038C168.718 30.9247 168.678 30.8852 168.638 30.8456C168.597 30.8061 168.557 30.7665 168.477 30.727C168.436 30.6874 168.356 30.6874 168.316 30.6874H167.51V31.7552H167.551Z" fill="#008BCF"/>
<path d="M173.309 33.4947C173.068 33.4947 172.826 33.4551 172.625 33.3365C172.424 33.2179 172.222 33.0992 172.101 32.9411C171.94 32.7829 171.819 32.5851 171.739 32.3874C171.658 32.1897 171.618 31.9524 171.618 31.7547C171.618 31.5174 171.658 31.3197 171.739 31.1219C171.819 30.9242 171.94 30.7265 172.101 30.5683C172.262 30.4101 172.424 30.2915 172.625 30.1728C172.826 30.0937 173.068 30.0146 173.309 30.0146C173.551 30.0146 173.793 30.0542 173.994 30.1728C174.195 30.2915 174.397 30.4101 174.517 30.5683C174.678 30.7265 174.759 30.9242 174.84 31.1219C174.92 31.3197 174.96 31.5569 174.96 31.7547C174.96 31.9919 174.92 32.1897 174.84 32.3874C174.759 32.5851 174.638 32.7829 174.477 32.9411C174.316 33.0992 174.155 33.2179 173.954 33.3365C173.793 33.4156 173.551 33.4947 173.309 33.4947ZM172.303 31.7547C172.303 31.9129 172.343 32.0315 172.383 32.1897C172.423 32.3479 172.504 32.4665 172.585 32.5456C172.665 32.6247 172.786 32.7433 172.907 32.7829C173.027 32.8224 173.189 32.862 173.35 32.862C173.511 32.862 173.672 32.8224 173.793 32.7829C173.913 32.7038 174.034 32.6247 174.115 32.506C174.195 32.3874 174.276 32.2688 174.316 32.1501C174.356 32.0315 174.397 31.8733 174.397 31.7547C174.397 31.5965 174.356 31.4778 174.316 31.3197C174.276 31.201 174.195 31.0428 174.115 30.9638C174.034 30.8451 173.913 30.766 173.793 30.7265C173.672 30.6474 173.511 30.6474 173.39 30.6474C173.229 30.6474 173.068 30.6869 172.947 30.7265C172.826 30.8056 172.705 30.8847 172.625 31.0033C172.544 31.1219 172.464 31.2406 172.424 31.3592C172.343 31.4778 172.303 31.5965 172.303 31.7547Z" fill="#008BCF"/>
<path d="M75.3796 15.4623C75.3796 17.8351 74.534 19.8519 72.8025 21.5524C71.1113 23.2133 69.0174 24.0834 66.6014 24.0834C64.1854 24.0834 62.1318 23.2529 60.4003 21.5524C58.7091 19.8915 57.8232 17.8351 57.8232 15.4623C57.8232 13.0896 58.6688 11.0727 60.4003 9.37226C62.0513 7.75087 64.0646 6.88086 66.4001 6.88086V8.9768C64.6283 9.01634 63.1385 9.64908 61.8902 10.875C60.6017 12.1405 59.9574 13.6828 59.9574 15.5019C59.9574 17.2814 60.6017 18.8237 61.8902 20.0892C63.1787 21.3547 64.7491 21.9874 66.6014 21.9874C68.4537 21.9874 69.9838 21.3547 71.2724 20.0892C72.5609 18.8237 73.2052 17.2814 73.2052 15.5019C73.2052 14.276 72.8831 13.1687 72.2791 12.18L74.1716 11.1123C75.0172 12.4173 75.3796 13.8409 75.3796 15.4623Z" fill="#008BCF"/>
</svg>
